<svg width="150" height="150" viewBox="0 0 150 150" fill="none" xmlns="http://www.w3.org/2000/svg">
<rect width="150" height="150" rx="75" fill="#072A51"/>
<path d="M115 51.5766C115 57.411 113.49 62.7649 110.47 67.6384C107.45 72.5118 103.057 76.4929 97.2908 79.5817C91.525 82.6705 84.661 84.4895 76.6988 85.0386L72.2715 109.852C70.5555 119.393 65.888 124.163 58.269 124.163C54.0819 124.163 50.2037 122.928 46.6345 120.457C43.1338 117.986 40.3196 114.211 38.1918 109.131C36.0639 104.052 35 97.8056 35 90.3925C35 76.4586 37.2308 64.6525 41.6924 54.9743C46.2226 45.2274 52.2629 37.9516 59.8133 33.1468C67.4324 28.2733 75.8065 25.8366 84.9356 25.8366C91.3877 25.8366 96.8446 26.9692 101.306 29.2343C105.836 31.4994 109.234 34.5882 111.499 38.5007C113.833 42.3445 115 46.7032 115 51.5766ZM78.5521 74.4337C92.6233 72.6491 99.6589 65.3389 99.6589 52.5032C99.6589 47.973 98.1488 44.3008 95.1286 41.4865C92.1771 38.6037 87.5782 37.1622 81.332 37.1622C74.2621 37.1622 68.0845 39.393 62.7992 43.8546C57.5826 48.3162 53.5328 54.5281 50.6499 62.4904C47.8357 70.384 46.4285 79.4101 46.4285 89.5689C46.4285 93.8245 46.8404 97.5997 47.6641 100.894C48.5564 104.189 49.6546 106.763 50.9588 108.616C52.3316 110.401 53.6358 111.293 54.8713 111.293C56.5873 111.293 57.8914 108.925 58.7837 104.189L62.1814 84.7297C59.5045 84.3179 58.3376 84.1463 58.6808 84.2149C56.6216 83.8717 55.2831 83.254 54.6653 82.3617C54.0476 81.4007 53.7387 80.1995 53.7387 78.758C53.7387 77.248 54.1505 76.0468 54.9742 75.1544C55.8665 74.2621 57.0677 73.816 58.5778 73.816C59.2642 73.816 59.779 73.8503 60.1222 73.9189C61.7696 74.1935 63.0394 74.3651 63.9318 74.4337C64.8241 69.0798 66.0939 61.9069 67.7413 52.9151C68.1531 50.5813 69.0798 48.934 70.5212 47.973C72.0313 46.9434 73.7816 46.4286 75.7722 46.4286C78.0373 46.4286 79.6503 46.8748 80.6113 47.7671C81.6409 48.5908 82.1557 49.9292 82.1557 51.7825C82.1557 52.8808 82.087 53.7731 81.9498 54.4595L78.5521 74.4337Z" fill="#56A5FD"/>
</svg>
